<mxfile host="app.diagrams.net" modified="2021-07-27T22:41:31.220Z" agent="5.0 (Macintosh; Intel Mac OS X 10_15_6) AppleWebKit/537.36 (KHTML, like Gecko) Chrome/91.0.4472.114 Safari/537.36" etag="cQb2BM_ys0ojtd_uu8er" version="14.9.2" type="github">
  <diagram id="prtHgNgQTEPvFCAcTncT" name="Page-1">
    <mxGraphModel dx="1298" dy="756" grid="1" gridSize="10" guides="1" tooltips="1" connect="1" arrows="1" fold="1" page="1" pageScale="1" pageWidth="827" pageHeight="1169" math="0" shadow="0">
      <root>
        <mxCell id="0" />
        <mxCell id="1" parent="0" />
        <mxCell id="dNxyNK7c78bLwvsdeMH5-11" value="App Architecture&amp;nbsp;" style="swimlane;html=1;startSize=20;horizontal=1;containerType=tree;glass=0;" parent="1" vertex="1">
          <mxGeometry x="140" y="10" width="1101" height="680" as="geometry" />
        </mxCell>
        <mxCell id="lBwfv3PTT-_vV1gR1VvL-3" value="&lt;font style=&quot;font-size: 20px&quot;&gt;Data&lt;/font&gt;&lt;br&gt;Abstraction&lt;br&gt;Implementation" style="rounded=0;whiteSpace=wrap;html=1;" vertex="1" parent="dNxyNK7c78bLwvsdeMH5-11">
          <mxGeometry x="490" y="180" width="180" height="100" as="geometry" />
        </mxCell>
        <mxCell id="lBwfv3PTT-_vV1gR1VvL-12" style="edgeStyle=orthogonalEdgeStyle;rounded=0;orthogonalLoop=1;jettySize=auto;html=1;entryX=1;entryY=0.5;entryDx=0;entryDy=0;" edge="1" parent="dNxyNK7c78bLwvsdeMH5-11" source="lBwfv3PTT-_vV1gR1VvL-4" target="lBwfv3PTT-_vV1gR1VvL-3">
          <mxGeometry relative="1" as="geometry" />
        </mxCell>
        <mxCell id="lBwfv3PTT-_vV1gR1VvL-4" value="&lt;font style=&quot;font-size: 20px&quot;&gt;Interactors&lt;/font&gt;&lt;br&gt;Use cases" style="rounded=0;whiteSpace=wrap;html=1;dashed=1;" vertex="1" parent="dNxyNK7c78bLwvsdeMH5-11">
          <mxGeometry x="765" y="180" width="150" height="100" as="geometry" />
        </mxCell>
        <mxCell id="lBwfv3PTT-_vV1gR1VvL-5" value="" style="edgeStyle=orthogonalEdgeStyle;rounded=0;orthogonalLoop=1;jettySize=auto;html=1;" edge="1" source="lBwfv3PTT-_vV1gR1VvL-3" target="lBwfv3PTT-_vV1gR1VvL-6" parent="dNxyNK7c78bLwvsdeMH5-11">
          <mxGeometry relative="1" as="geometry" />
        </mxCell>
        <mxCell id="lBwfv3PTT-_vV1gR1VvL-6" value="&lt;font style=&quot;font-size: 20px&quot;&gt;Domain&lt;/font&gt;&lt;br&gt;Core business models" style="rounded=0;whiteSpace=wrap;html=1;" vertex="1" parent="dNxyNK7c78bLwvsdeMH5-11">
          <mxGeometry x="490" y="30" width="180" height="100" as="geometry" />
        </mxCell>
        <mxCell id="lBwfv3PTT-_vV1gR1VvL-13" style="edgeStyle=orthogonalEdgeStyle;rounded=0;orthogonalLoop=1;jettySize=auto;html=1;entryX=0.5;entryY=1;entryDx=0;entryDy=0;" edge="1" parent="dNxyNK7c78bLwvsdeMH5-11" source="lBwfv3PTT-_vV1gR1VvL-7" target="lBwfv3PTT-_vV1gR1VvL-4">
          <mxGeometry relative="1" as="geometry" />
        </mxCell>
        <mxCell id="lBwfv3PTT-_vV1gR1VvL-7" value="&lt;font style=&quot;font-size: 20px&quot;&gt;Presentation&lt;/font&gt;" style="rounded=0;whiteSpace=wrap;html=1;" vertex="1" parent="dNxyNK7c78bLwvsdeMH5-11">
          <mxGeometry x="760" y="429.99999999999994" width="160" height="90" as="geometry" />
        </mxCell>
        <mxCell id="lBwfv3PTT-_vV1gR1VvL-11" style="edgeStyle=orthogonalEdgeStyle;rounded=0;orthogonalLoop=1;jettySize=auto;html=1;entryX=1;entryY=0.5;entryDx=0;entryDy=0;" edge="1" parent="dNxyNK7c78bLwvsdeMH5-11" source="lBwfv3PTT-_vV1gR1VvL-8" target="lBwfv3PTT-_vV1gR1VvL-7">
          <mxGeometry relative="1" as="geometry" />
        </mxCell>
        <mxCell id="lBwfv3PTT-_vV1gR1VvL-8" value="" style="shape=image;verticalLabelPosition=bottom;labelBackgroundColor=#ffffff;verticalAlign=top;aspect=fixed;imageAspect=0;image=data:image/png,iVBORw0KGgoAAAANSUhEUgAAAJgAAAB+CAYAAADY39i+AAATHElEQVR4Ae2diZMcxZXG/T9trG9A4A1rDYHl5TAsDnCYkMOyHNhmIbS2Y732AgKJkUC3EEgeAdJYQrCSQIzRgjEChA50X0hcuqWZPqfn6ulrvo1ftZ7UtLqnanqmNDWlrIiOPqrq5Xvf+zrz5cuszK/JHQ6BEBH4WoiynWiHgBzBHAlCRcARLFR4nXBHMMeBUBFwBAsVXifcEcxxIFQEHMFChdcJdwRzHAgVAUewUOF1wh3BHAdCRcARLFR4nXBHMMeBUBFwBAsVXifcEcxxIFQEHMFChdcJdwRzHAgVAUewUOF1wh3BHAdCRcARLFR4nXBHMMeBUBFwBAsVXifcEcxxIFQEHMFChdcJdwRzHAgVAUewUOF1wh3BHAdCRcARLFR4nXBHMMeBUBFwBAsVXifcEcxxIFQEHMFChdcJdwRzHAgVAUewUOF1wh3BHAdCRcARLFR4nXBHMMeBUBG4LglWHpbypWH1DlWUHqiou7ei8z1lnUyXdSJR0rGLRR25UNTh80UdOl/UwXNFHThb1P4zRe07VdDeSy8+8xvnuIZruYd7kYEsZCKbMiiLMikbHa6H47okGA7u6oVMRe0+U9DfPx3SpsN5te8a0Px3+/RYZ07/vaVHf9jco1kbe/Toaz16+JWsfv3XrGa+lNGM1dUXn/mNc1zDtdzDvchAFjKRTRmURZmUjQ7XwxFLglWGpUJpWH1Dw0r2V3Q2W9ZniZJXs1DjbP9sSJ2HB9Wxe0DL3+/T0//Xqz9uyemhV7K6rz2tacuTum1JUlMXJnTLgoSmzE/ohraEvj2nW19/vEv/9D/VF5/5jXNcw7Xcw73IQBYykU0ZlEWZlI0O6EJth27oiK7ojO7YEIcjlgTDQen+iue4D04WteFgXgvf69Mf38jpNx1Z/bw9rZ+uTOu+FSndvSylf1uS1O0Lk5r6bEJT2hK6YW63vvNUt779VLe+9WS3vjm7W994ossj1z8/doVgfIZknOMaruUe7kUGspCJbMqgLMqkbHRAF3RCN3REV8iG7tgQh2NSE2x4WCpXpMHisFIDFZ3JlPVJV0m7TxX0zrG81n88oIX/6NfvNuf0wIsZ3bo46TnfaqCJfoeI6IRu6Iiu6Izu2IAt2IRtNKnUapONdpOaYJBroDCssz1lfXS6qI59ec1+q1e/XZ/Vz1en9ZMVKd25NKXbFiZ1y7yER67aJm6iCYYukAzd0BFd0RndsQFbsGnHmaIu9JY1VJ58TeekIpj1/rKD1bjqWFdJO74oaPOBvBZv69ejG3O6Y0VKN7YlvGZrognUavk0udiALdi0ZFu/thy+UqsRr4HBZOiNTiqCWe9v//miXj0wqHnv9OnhdVk98EJady1L6dYFSd04txov1cZKrTp6ou5Dd49kc7s9m7CNuO0/1mc1/50+z3YwmAy90UgTzHqDPYMVnc6Utf9sUVuP5rXyw379fnOPfrIqrZvbEpd7dUEJYQ4kIL/p6YT3+u6cbn1rdjVoDyrH7zqaQGQiezzKwVZsxnYwAAswARswimLvM9IEs97gwfNFrd0zqMf/1quZazK6Z3k1rgLwbz5xpVfn53A7b03Qvy5K6u6Vad2zKq3blyX1vWcSHiHsurG+Qy5kIpsyxloOtmIz8RoYgAWYgA0YRbH3GSmCWa+QXBDZb3JE/zg+pPbt/XrktR7d8VzKawKDOJ5aitQBTeb3n0lo2qKkfrw8pftfSOvB9rSmv5zRg2sy+unLGd37l7R+GCLBkE0ZP1uT0Yx1Gf2yI6Ppq9OeLuiEbuiIrugctHnnejABGzACKzADu/5CNHqdkSKY9Qo/T5a0+XBe897u83JF9y5P6Qc18ZUfwbwmcHaXbp6f0J0r0pq5LqvHO3N6/sN+bdo/qC2H8lq3d0Btb/fq/va0V8uQtwqriUQ2NRllzXunV6/sG9Cbh/OeLuiEbuiIruj8jdldgUhmcRrYgBF5NTB7/UheJ9OlSPQ6I0GwUkVeBvtctqy9Zwp6dd+g/rQlFzjGslhnSlu3l9S8d0XKqyEe2ZDVk2/1auWOAXV+kteO0wUduFDSjlNFbdg3qCc6c7pjWTKwQ/2I3ey8EZ6yKJOy0cHT5XTB0w0d0RWdqd2wgQQtNgUlvsVof34zp40HBnXwXMGrzWgRwHgijkgQDACotf52LO854GerM5q2OOnFG0FiLIt17luV8sYBV33Ur7eO5vXxqYKOXizqy1RZF3NlfZEq670vinr+owFvDJGm6cY5wZukZgQK8jskoyzKZPwSHdAFndANHdEVndEdGxjTxKagsaHFaNOWJDX9xYye7Mx5mIItGE/EMSEEw1R6iMQJxAv7zhb1v/sHNbszp7ufS1015lfvQEtQfn9+QnctTWl6e1qPvkoXvlebDw/qwPmiuvuuJCathjzaVVL7zkE9vKFHP3g2OWLvE0Lwqi/b73uQ+ygbHdAFnayGAROSqeiODdiCTdiGjdiKzSRnwaCZLpxjjBQswRRswXgiYrMJIZgBSZxAvMBA8C9fznj/7pvmVsEbybk2xDJjbUaL3u3TGwfz2nWyoBPdJQ9EkpBDNUMrVkNuOjio367LeuT6zpPdTR1E2cRBQWMhc3TQ+ygbkqELOlkNY388dMcGCIFN2IaN2IrNfkNe6AHJwJIaE2zBeCJis2tKMMtrJfsqOnKx6IFLvOCXzwIsmsGb27r1o8VJPbi6mgt6fnu/tn9Z8GYiMB5Zf1BesSxvPK/zaLX5BXAjRO07TuHFb0GJUnt/s/tq5dZfjy7EZOjGmCO6onP9gW1k77EVm8mDgQFYgIlfjFYbm0FosMcH1yJvdk0JZnktBnKf/XuffrEmox8t9Y+1LMaiFzbnrV6vE7DzZEFfJktK9Ve8wW56oPUHDsvlh70a4M9vVAN64qB6Rzci1EjEqL+/9nvtfY3k1l6LLgT+6EYtha7oXH9cHtDvr3g2YzsdIbCwXjAY1cqu/WyxGViDOdjjg2uRN7smBLMY6HS6rO2fD2nFtj490J72HTO0puS+F9LepL4F7/bq7RP5y01KvSPqv/cODet4oqSOjwd1/6p0wyYPEnz90nSb0TaJtU5s9NkIRm6LMvhee52dRzd0RFd09jusyQcLMGHCIxjR7I7U9FuCGezxAb7AJxYD+pXbyvlrQjAD5M0jef3p9Zz+/fmUvjevOiBdD3qtAywYfu7DAb336ZA+TZS88beggJzrKWvjobw35+qHi5JNHdyMALW6tPoZ+0YiMOfRjXlh6IrOfof9YRmLBBOwASO/zotH6Ce6POzxAb7AJxYD+pXbyvlQCVYoD3vz0Okp0fb75Z0s1oJ8P16W0qwNPXpx16B2nS16coIaaLEeWW0Sj81iPA/wEYJ5jxyXptSQabeJg3cuZWpNdRIhv3HOenbcU09Gv3IsRkJXdB5tbMRcfzACKzADOzBsFpuZPpaX23xwUMe7S+rJV1Qc54cFQiWYGU53nB4TQe1IeSeLtaa/VK3Ct306VJ3hOVARZA16WKzH0AnZbRzYLJ8G2I1IAUmsu3/b4qRmdGQuT32mWeJlU605xzX1U6priTZSORYjoSs6jzY2sj8ys2HBjOYPDEfKn6GP5eUeWZ/Vuj0DOnSx6JEsKM5BrguFYGbw/nMlrdrhn3cygO9cltKv12e0bFuf9pxpPQjtzVd0vLuotbsGvCnKtY62zyM53IZgbl9U7bH+1+s5r/dmD2988OWQeNnDIvTsuIaeHffYlCErq/Z9pHKZTo3O6I4Noz3sjwV2YAiWYDrSHwzdGDz//cYerf14QIcuVFuL0fyhR9IzFIJZzQW5Zq71zztZE8HMgK3H8vo8UVKGWqvFhx+ITbYez3tDL3Tlax3MZ5w8Up7LBpH/c1PO663tO1vwdCIvxeNnPJzByx53Q1+uoWfHPc0G5f3KRVeGi9AdG0Z7WGgAdugElmDaLEQwXOgYQLKHOrL6y87RhyQj6TmuBKP9ph3nX4CifkGn9RIfXJ3RnK292nI0rwu50QNbb+DJVEmrdvbrV+uymvrM1fPFmjma32kWqYUgSsfeahLUb6oyjuUagmXu4V5kIAuZ5shm5dp5dEVndMeGsR5gCaZgC8Z+vUzrVOE7fDgeMdm4Eswj18WiV9Xybwhq0AsfDWjnqYJHrnyDhOlogf6kq6intuZ0F9On516d97JarNb5/GYxF00dtRGEyeUrvg9bEB1CMq7lHu5FRqOYjDLryzWCoSs6ozs2jPUAS0gGtmAc9A+P77zmchxisnEhmNVcZIg79gx47TlVrgFX/37DU9UhDAJ/OgCj7SX6Ac8T1r/b2KN/WZDwHiWrL7/Zd3qCBOvEUzR5fjVXvR5Wk3EvMpCFzGbl1f/OY2/ojO7YMF6HhSy1nS18UF++fbeYDF/i07HUZONCMKu5UOg3f8167flICT96k4+/mfNSF6QwAGC8gkqccuBM0Xsq57uX5ucbcH7vpBvoERK0E8NAmOB91+q13MO9yEAWMv3KtfN0LtCZJ4qwYbwO63RZugjsmw2ZoYvFZPgSn46ldzkmglnCjxwK3Vx6IkFqrlkbsnr90JVB3vEC0pqqPacK+tWaTMPMvTmz0Ts5LZ7CprdIQN/qwb3IQBYyG5XV6DeL0dAdG0ZLcD99LeEN9vgAkgWpyfAtPg6a4K7VY0wEM4VJ1JFLgVxBai4MJGfTisK1ytd/tiZqxxdD+sXqdNNYp5Fz+Y2nr8ltkX6gh9jqwb3IQBYym5XX6HdIhu7YMNom2k9fqxDAHh8ErcnwLT5uJeM/JoIxpeTAhaJWbe/3HkJoBFjtbzyowLXcw73jfZQrwxosVvThZ0Peo/m1ZQf5THaeBCo5LtIQrR7ciwxkITNI2bXXsKwANmALNo33cS395gh2aSETHOwIdiWlUkv4sVQMYyKYayIb1y2uibyCy5gIZm26C/KvAMonF+RfwWNMBDMxLk1RRcJ6sS5NYcyQxoVgLtFaBdR6sS7ROs4EM3FWkzHM4IaK3FARvBiXGswIZjWZG+x2g93GiXElmAm1sS83Xeer3X7L1Deb+++m6xiDfN5t7MtNOPwqwcgtQTJetXkm++wmHPoQq/601WS1o/huyvTV5LIZvW7KdD2DfL5bTWaj+O6hj8a1l83odQ99+BCq2WnL+LvH1q4mGM2le2ytGXMC/m4Zf/fg7VebRwv63YO3AYnkd5k99eKWDqgSzS0d4MeYUZ4n0w3J3OInVYIx4c8tfjJKEgW53IZU3PJNjZdvYrl2b+eSbNmbSeqWbwrCqpprbFDYLUDXeAE6dvVgd4/1+/N6+m23AF0NdVr7aL1MltBk2UeWf2QZSL8nki1BaUsOxGUJzc4jeS19v1+zNuV0z8oWltBcnBTLkNL8gmkrU51b8+TVd4UyVHR1MSP/Yr1M5lGxcC0L2AZZmM4IxvOMkCwuiwDzTCXLm9+6MKmbnvZfYM5wsHwaCyjzbCYLKrOw8ng/+zCyN796NhIEM5XqYzMSj2S347SMOUuns4Q6S6mzpHoYy5izBDy1FhuFNVqYz/C+Fu+RIlh9bBa3jRjY9IHNH7xNINrD3YiBWgtysbnFRB6RIlg9EJY3i8tWMmxbw/Y1re4GZ2OWPB7otpKpZ0sL3y1vFqfNsNiAiye4m82osHiq0bvFWG4zrBbIFOSW+u382NqOLe7Y6s5t5xcEwWt/TaSbyHo46jckte2T2ayTTTvdhqT1iE3890lFsHq4rNdpiUm3pXI9QhP/fVITzHqdl4dW3KbwE8+oOg0mNcHqbLn81XqfLPLxwcmiNhzMa+F7fd5S4eTVWPuBuI0pyncvS3kLlLAKztRnE5rSlhDb77GuFwE5a3axzDmBeaMVC/mNc1zDtdzDvchAFjKRzSIolEWZlI0O6MLy5eiGjuiKzqNdBPiy4RH8EEuCWe+TXBALkbANC44jr7b/TFHbPxtS5+FBdewe0PL3+y6vFv0QGxq0pzVteVK3LUlq6sKEblmQ0JT5Cd3QlrhqxUJbEZFzXMO13MO9yEAWMlnGiZV2KIsyKRsd0AWd0A0d0RWd+YNgQxyOWBLMzzHWGz2RKGr3mcLl1aLbdw1o/rt9eqwz522l94fNPZq1sUePvtbj7abBNnwzX8poxurqi8/8xk4bXMO13MM2fMhAFjJtdWrKoszJsJm7H4ZBz1+XBLPeaO9QxVtd0VaLPpku60SipGMXqzXL4fNFbynLg+eKOnC2WvvtO1XQ3ksvPlMLcY5rWPaSe6iVkIEsZDLGShk8BEOZEHwUy/4H9WUkr7suCRZJT8RUKUewmDo2KmY5gkXFEzHVwxEspo6NilmOYFHxREz1cASLqWOjYpYjWFQ8EVM9HMFi6tiomOUIFhVPxFQPR7CYOjYqZjmCRcUTMdXDESymjo2KWY5gUfFETPVwBIupY6NiliNYVDwRUz0cwWLq2KiY5QgWFU/EVA9HsJg6NipmOYJFxRMx1cMRLKaOjYpZjmBR8URM9XAEi6ljo2KWI1hUPBFTPRzBYurYqJjlCBYVT8RUD0ewmDo2KmY5gkXFEzHV4/8BoPZTByTjS6gAAAAASUVORK5CYII=;" vertex="1" parent="dNxyNK7c78bLwvsdeMH5-11">
          <mxGeometry x="980" y="432.71999999999997" width="102" height="84.55" as="geometry" />
        </mxCell>
        <mxCell id="lBwfv3PTT-_vV1gR1VvL-28" value="&lt;font style=&quot;font-size: 20px&quot;&gt;Business&lt;/font&gt;" style="text;html=1;strokeColor=none;fillColor=none;align=center;verticalAlign=middle;whiteSpace=wrap;rounded=0;dashed=1;" vertex="1" parent="dNxyNK7c78bLwvsdeMH5-11">
          <mxGeometry x="10" y="315" width="110" height="45" as="geometry" />
        </mxCell>
        <mxCell id="lBwfv3PTT-_vV1gR1VvL-40" value="&lt;font style=&quot;font-size: 20px&quot;&gt;Framework&lt;/font&gt;" style="text;html=1;strokeColor=none;fillColor=none;align=center;verticalAlign=middle;whiteSpace=wrap;rounded=0;dashed=1;" vertex="1" parent="dNxyNK7c78bLwvsdeMH5-11">
          <mxGeometry x="10" y="372.27000000000004" width="110" height="45" as="geometry" />
        </mxCell>
        <mxCell id="lBwfv3PTT-_vV1gR1VvL-44" value="&lt;font style=&quot;font-size: 20px&quot;&gt;DataSource&lt;/font&gt;" style="rounded=0;whiteSpace=wrap;html=1;verticalAlign=top;" vertex="1" parent="dNxyNK7c78bLwvsdeMH5-11">
          <mxGeometry x="70" y="430" width="660" height="200" as="geometry" />
        </mxCell>
        <mxCell id="lBwfv3PTT-_vV1gR1VvL-46" value="&lt;font&gt;&lt;span style=&quot;font-size: 20px&quot;&gt;Cache&lt;/span&gt;&lt;br&gt;&lt;br&gt;Implementation&amp;nbsp; &amp;nbsp; &amp;nbsp; &amp;nbsp; &amp;nbsp;Abstraction&lt;br&gt;&lt;br&gt;&lt;font style=&quot;font-size: 24px&quot;&gt;&amp;nbsp; &amp;nbsp; &amp;nbsp; &amp;nbsp; &amp;nbsp; &amp;nbsp; &amp;nbsp; &amp;nbsp; &amp;nbsp;&amp;nbsp;&lt;font color=&quot;#3333ff&quot;&gt;Dao&lt;/font&gt;&lt;/font&gt;&lt;br&gt;&lt;/font&gt;" style="rounded=0;whiteSpace=wrap;html=1;verticalAlign=top;" vertex="1" parent="dNxyNK7c78bLwvsdeMH5-11">
          <mxGeometry x="100" y="480" width="290" height="120" as="geometry" />
        </mxCell>
        <mxCell id="lBwfv3PTT-_vV1gR1VvL-14" value="" style="endArrow=none;dashed=1;html=1;dashPattern=1 3;strokeWidth=2;fillColor=#f8cecc;strokeColor=#b85450;" edge="1" parent="dNxyNK7c78bLwvsdeMH5-11">
          <mxGeometry width="50" height="50" relative="1" as="geometry">
            <mxPoint y="360" as="sourcePoint" />
            <mxPoint x="1100" y="360" as="targetPoint" />
          </mxGeometry>
        </mxCell>
        <mxCell id="lBwfv3PTT-_vV1gR1VvL-63" style="edgeStyle=orthogonalEdgeStyle;rounded=0;orthogonalLoop=1;jettySize=auto;html=1;" edge="1" parent="dNxyNK7c78bLwvsdeMH5-11" source="lBwfv3PTT-_vV1gR1VvL-3" target="lBwfv3PTT-_vV1gR1VvL-44">
          <mxGeometry relative="1" as="geometry">
            <mxPoint x="390" y="420" as="targetPoint" />
            <Array as="points">
              <mxPoint x="580" y="430" />
              <mxPoint x="580" y="430" />
            </Array>
          </mxGeometry>
        </mxCell>
        <mxCell id="lBwfv3PTT-_vV1gR1VvL-64" value="" style="shape=datastore;whiteSpace=wrap;html=1;verticalAlign=top;" vertex="1" parent="dNxyNK7c78bLwvsdeMH5-11">
          <mxGeometry x="190" y="550" width="30" height="40" as="geometry" />
        </mxCell>
        <mxCell id="lBwfv3PTT-_vV1gR1VvL-66" value="&lt;font&gt;&lt;span style=&quot;font-size: 20px&quot;&gt;Network&lt;/span&gt;&lt;br&gt;&lt;br&gt;Implementation&amp;nbsp; &amp;nbsp; &amp;nbsp; &amp;nbsp; &amp;nbsp;Abstraction&lt;br&gt;&lt;br&gt;&lt;font style=&quot;font-size: 24px&quot;&gt;&amp;nbsp; &amp;nbsp; &amp;nbsp; &amp;nbsp; &amp;nbsp; &amp;nbsp; &amp;nbsp; &amp;nbsp; &amp;nbsp;&amp;nbsp;&lt;font color=&quot;#3333ff&quot;&gt;Retrofit&lt;/font&gt;&lt;/font&gt;&lt;br&gt;&lt;/font&gt;" style="rounded=0;whiteSpace=wrap;html=1;verticalAlign=top;" vertex="1" parent="dNxyNK7c78bLwvsdeMH5-11">
          <mxGeometry x="420" y="480" width="290" height="120" as="geometry" />
        </mxCell>
        <mxCell id="lBwfv3PTT-_vV1gR1VvL-67" value="" style="shape=image;verticalLabelPosition=bottom;labelBackgroundColor=#ffffff;verticalAlign=top;aspect=fixed;imageAspect=0;image=data:image/png,iVBORw0KGgoAAAANSUhEUgAAAJAAAAB6CAYAAABQmdpcAAAUdklEQVR4Ae2dh1cU1xfH87flpJGqKcZEg7HHXpBiBxtgScSCxhIVRJoBlaLSUaOAUpRiVGLFhiWi0QgK93c+F5+/JG5y1p3ZZZd975w5C7Mzs/PufOf2e98bYoelgAMKvOHgXHuqpYBYAFkQOKKABZAj8tmTLYAsBhxRwALIEfnsyRZAFgOOKGAB5Ih89mQLIIsBRxSwAHJEPnuyBZDFgCMKWAA5Ip892QLIYsARBSyAHJHPnmwBZDHgiAIWQI7IZ0+2ALIYcEQBCyBH5LMnWwBZDDiigAWQI/LZky2ALAYcUcACyBH57MkWQBYDjihgAeSIfPZkCyCLAUcUsAByRD57sgWQxYAjClgAOSKfPdkCyGLAEQXCEkDPnz+XP//8Ux49eiRdXV26PXz4UP//448/5MmTJ9Ld3S0c19fX54jAg/3ksAQQ4Ll586a0t7dLW1ubtLS0ytmzZ+XChQty6dIluX79uty/f18eP36sIBrsIHAyv0EJoN7eXunp6VHO0tHRIb/++qs0NDTIiRMn5MiRI1JSUiL5+fmSlZklu3fvlvT0dMnIyJDMzEzJycmR/fv3S1lZmRw7dkxqamr03NbWVvntt9/kxo0b8uDBA72+E8IPlnMHJYAADw8Z7pKXlyerVq2SadOmyZdffinvvvuuvP322/LJJ5/IsGFfyogRI+Wbb76Rr7/+Wr//4osv5KuvvpKxY8fKxIkT9XPq1KmyZMkS2bJlixQWFcnp06f1+oMFBE7mMagAhMi5evWqNDY2SmlpqXIXwDNnzhwZFTlKQQN4ABFgGjNmjEyaNEmmTJmiYBk3bpx8++23L/cDoJEjR0pkZKQAokWLFsmGDRskKztLr3/y5Ek5d+6cisPHT54InC/cdKZBBSDAk52dLQsWLJARI0boNn/+fFm/fr2kpaWp2EJ8IcYQZwCgvr5eRdSpU6f0/7q6upf7f/nlFyksKJT0tHRZt26dJCUlyfLlyyQmJlqvDZdas2aNHDp0SK5euybdPT0KIidvdKidG9IA4m1/3tsr9+7flzNnzqjusnr1apk5c6ZyDrhLamqq6jzNZ5qVU6BAezuMst3c3KwcB3Bu375dli5dqgAaNmyYREVFKUCLDx6UxqYmVcLv3r2nVpy3v8NxzAUOZrZQ4WQhDSDA8+fTp3Ly5CmJjY1V0YPI4kGjBMNdsLRu3bqlOguAwDT3dhhzH32Ka8DhLl68qGAtLy9XxTs5OVni4uJk1qxZsnhxvCrkJ07UCCDydgCWZ8+eS3d3jzzt7g4pThaSADJv6527d6W2rk62bd8u6C/oLHv27JGWlha1wLx9gK973LNnzwS/EfoP1twPP/wg8+bNUxCvWJEoO3bsUDEJ2PArGYsQELIPlwH3iK5mLMOKikopKyuX0rIyKa+okOrqajl+/LiKVzggViBuhmvXrik4n/AyBIHOFZIAgs2jb5w8dUpFCMrw5s2bleiY2jgHeWj+Gv0cox9EuAnOnz8vPGR0IfQkxBpcadu2bQoY7qe1rU0OHz6s+zgmPj5eRS0W3wcffNBvHb7zjn6+FxEh77//vmARouADzoQlS2Td+vWyd+9eOVFTI9dv3FTuC4gGcoQkgH5/8ECaTp+WXbt2yejRo9VCOnL0qHIFuMNAjStXrqgvKSEhQcGB6V9UVKTcKDMrS9auXasK/uzZs4Xtu+++k88++0zee+89BQ7WYUREhG7sGzJ0qHLW6dOnC1tMbKwkJiUpxy0qLpaamlrlTIhWOCJzD7TuFJIAgp3zkKZMnSrrN2xQfQfv8UAQ8K9gxY0AiHA+oocZ0YYPasLEieqLgvNs3LhROcnBQ4fk4MGDquRXVlYq0LAQq6qqpLS0TA4dLlGuhZjEBwV4ABHzHj9+vIIqMTFRnZ+IRQOiv96Tv/8OKQA9ffpUOjs7VVTAedgQG5137gjfBctAZKHj7Nu3T5YvX64KNr6oZcuWKdcsKy+XtrNn1Sq8//vvr4RMjHHQ9fChdHbeUd0HrzjiCzG2cNEiBePkyZNVXK5cuVIdprglLl++HFBPeUgBCPDwhqLvTJ8+Q+LjE6ShsVHBg14ULMMozXBFvOFNTU3qveZvHvDt27cFcGAVosv9M2iLGAJEPc+e6dwI+t65c0cVaBRpwEloBmcpnAm3QkxMjAL057y8gHrKgwJAhuBYKZcuX1brxhCptrZWcOjxBhKjQiygW6xatVrfSKyScB3mhcLqg7stXLhQVq9ZIzm5uWrpBUKkBQWADMvHStm5a5cSATaN4kgYAUXzo48+0u3TTz/Vt41jAQ+pF+E6jEgngwDuhsIOiPDE79u/X4PIgMifY0AABOuG2+BHIXRAeIEo+KZNmyRh6VKJmjNHpkyZqjrO559/Lh9++KFaKkOGDFHlkXgUrNyOv1MAFwbiPT4hQVI3bZIDBQVqpfniGf/7lf/9vwEBEOABNMSRCF4OHz5czVosK1gx+7dv/0kyM7NUTKGMFhYWqrWFSAM86AV2/J0COC0BEdwZDzminnSV1/WM//2q//1fQABkQgLIbExwwPPjjz+qs42oOKkUmLe8PeTmFBQUqI+DPB58HJz3uwdr5b+nFr7foqgTPMYCTE5eKRkZe5TbI+5fJ5TjDQUDAiAjsnDPw2XwizC5rVu3Sl5+vlRXH5EzZ5r17WHyJG3du3dP/Rr4VpD1KNr/tFa8mWA4HgPNoCNWGnResWKFVFVWyvWODtd1Rr8CSM3R588VEBUVFarjEHScHRWl4AFQ1zo6gsIlPxiBho75/fffq1KdnpYmtTU1+mK6OVe/AgiOwduAojx37lwNOezenaEB0Avt7SqalK0GQVDQTaIGy7XwihNcxluNr4jQz+VLl1y9Pb8AyDjC0F2INuOngPMgvhoaGi3HcfUR/vvFcD7iP0NVIEcKAwVz383hFwAZV3xtbZ1aVxMmTNAgIwo0yjDfBzro5ybRQuVa6J43bt4UYm6EPQjg4hV3c/gFQJjYFy60S2ZWtlpYAIiUUTsCSwGT9kJwl8g/GZqoE24aI34BEKY3JTJo/5jnpIGSSGVHYCkAlwdEvLzkFQEgRBp6qVvmvF8ARGoB4CGxaufOnZregFluR2ApYACE85UCAJy2WL5BDyAS3MlRnjFjhpSUlmrYAnlsR2ApYERYZVWVfPzxx1rWBICCW4T19UljQ6PMnDFTg6HI3HAsdwksVDz/GnQn36i4+KAQRyRFljxrN4e7IqyvT/p6e6Whvl65DxyIygjeBGt1ufnYvLvWo0d/SHv7b0KOEEo0KkVwW2H/ABDVnEfJVX70SNNNvZu2PcotCuCHq6qqlm3btmsWI8WRbmcxuMuBmPlfRNjYseMkO2evnDvfriByizD2Ot5RAMuXyhCi8ikpKXLgwAHtPOLd2d4d5T6ARDQbbkViosyYOVNS1m2QwyVlqkh7d0v2KKcUMBme+H9wo0RHR0tWVpZfUl39AiCi6eTvrF2bInPnzZd162wCmFNQvM75pg4tOydHMx+iY2Lk6LFjfkm29wuASKMklwcQUamZmJik5SsU4FEm7KYZ+TqEDZdjSeZHXFGtQVowhYz45vwx/AIgU/pLxJ26JxLFyNWlsA4fkZuOLH8QJdSvaRy5xL8IoP78889CBa0/hl8AZG6UmBjNDcgwpM0KspiMQ5xZmJOkX9JqDpaL3LbDHQpgaZE3Ds1RnmmyRVMsyoncrp/zK4DgRIAI0UVec1Jyspbqjho1SicHZyouLvZ7MwR3HkvoXKU/mH1Bc8ipgl29epWm1JDUB4jcHH4FkLlRoxPh0MKZRUs5gnskmSGfiZdR2muT5Q3F3PlEF6KWbv36daoPbd22TeOSN2jM4FJoKSAAMjoRchjRRdUASWaYmICJ0h1as9hyHXeAY65Cticgwpm7NiVF4hOWaC+BoqJiAURujIAAyNyoiQ5TfUqqJeW4Q4YM1VYmRIstgAyl3P3kxc3bt0++16repdq1jQi9GzpRQAFkosNwIbgPDSzxVick9LdBsSLMXeCYq8GJABG+oA0bNqpb5aeffhI3dKKAAMhwHvr60Ghp//4DsnTpMombO1etBDdZqiGa/XyVAogtaE1MbP78BdrbEX+dE79cQABkOA/gwRcEePLz92mHMSbgplL3KtnsHkMBzZFWEBVpP0n0TqcZigEBECW3BPboqoVvAgA1NjbZ6gzzZAP8SYoN6R0YMPQc4tnwjHwZAQEQXTRycnI1NrYxNVVNS/oq2+oMXx6Z83MoOKT/AI5dHI1EC3Do+jL8D6C+Pq1FWr58haa50rumublFHjzo8uV+7TkuUICiB1rwUXBIiIkmVUQFfBn+BdDLBLMGTXGlKqCkpFRud3a67lL3ZfLheg7mO320cZvMmjXbUbA1IACqq6lVpY1mUeXlFdrejfZtdgwMBe7evatd37Zs2ap9mGiQTkc4X4Z/AcQd9fWp+xyFjaUBCguLtHGk20E9XyYfrueEFoBENLEe8QUHys3NVXnrq9Yfrg/dzXmbBl8sQkP3WJaHwJ3iy/A/B3qR4pqUlKihCzpE4Ea3hYa+PC53zqF3UHp6muYK0T+IFBv2+TICAiACeqRz4AEltYA4GK1H7AgsBfA4E9YgN4jngE+OkAbBVjp5+DICAiAyEK9cuSoFBYUyaVJ/c2y365N8mXy4naPR+Y4ObTEYEx0tcXGx2hUf8PiqkwYEQMTCWM7o9Okzsjg+XqKi5miaJamXZCOiaNvhPwqwAjUqAw7E8rIyzb8i1ZWEPl/9P+ZuAwIgfgwQ3bt3X+obGmXPnkyJiYnVBgxtra1azWpBZB6J+5+AhxJzFhZm2U7Ag/cZ8Dg1ZgIGIMhiGk+dqm+QBQsXavlzxu7dUldbJ5cuXtSltnlb7PhvCpjsBnQacskJkj58+EjphzgidYPUGAoYqA1jPZG0tHTt8g+A3OA85g4DCiAmDohu3rollZVVqlSTHz1u7FjNUCTIx3rtdvw3BUx2Awv9UiZFHOvcufNSX9+ga4nQ+ZZVjOiQwnpkbHD8zZt/1BwgNziPucOAAsj8KG+M8UXQ8pcFcmGrmJOku7LqDH4JYjYQB8cXedUo4yiCbCSOoz8BONq4nT9/QRd9a2o6rUn8D7q6Bk2w1rx4zIkCBcQRLVtY3bCislI5TFZWtuzYsVNLmX9Yu1bmzpunXf1ZGgL/G7nn/si7GhAAwXoNiFh1BhOfdrQ04uRtYQVCnFuU4yKradSJwo3pj0uA6D7lQi2trdp9izSRlJT+JCkUdCLMzS0tgyZdxIh+5sTcWCuMde/Z+JsCBZpH8TeFCgRJibaTRH/gQIEcP35C2trO+iXvakAAZDiR+dSc3bw8TXOFG7H0AfnStOuHYESLUQDJXcnPy1cLDnDtzsiQtPT0fnYdF6dxHSoxaSawJzNTamrrNO93oBeiM/N83U9EFTrOrVu3paa2VufE3ADK0KFDBe5i1gyjEwrpGQAHZy3VGP15z51qAcPF/DGCAkCIJECE0sdqfVRSApr+NnlzlGAjR4zUWBor91DFwRIJLDhH51HaB8PBEIG0M+F8QiczZ83SjDvEHyAKtQF40HFYI402vcyJudHzkCWw2NAb8anByXEQYqrjVYZTY33h3/EXeKBnUADIPFhEW7/T8YoCCUAgymJj45R4sGkS8QnMIuZoYEUDbcBG9SurINNG2LTYozssDT7xtEJYJw4zc4+B+OSh09sHPZAqXuYH10EpZm7BNIIKQKosvgARBORNgogQjTcN5RG2zIaiDWBonI1VwRsHeMxbyzmIOQoZEWs8BCcu+0A+NOZuVmbEyIDLMhfmBEcKphFUAHKbMCjeKJSETygjYoUgFmUDfPhJeFC+uvDdvFfugSQvLCzuja4mrJ2GzwaxxRyYSzCOQQ0gdB8ITw7SypWrVMlGd0IckI2HvgWIBnoAHmq0MBgQzTTDnDx5ipYjAybmwFyCcQxqABmCY/ZjwS1atFh9TrgK4uLilCOR2ol4RAlFRMAFrl69pklveHfxjGMN+aKIqkju7VUuh88KsOLb4jf4LX6T32ZZJjgOjaBIuhs+/CtZuHCR3jP3HswjLACElceDwEqB69BFPzE5WeZER79cPhszGB8KXCA7O0eqq4/K2V/Pa/zO1zbFxn/DsuTUxOH8w+HHb5jVizDDp06bJlHR0bouPO4HGk1wr9wz9x7MIywAZB6AsfLQf3L37pXklStVyZ4wfvxLR1x0dIxQQbIxdZOu9VFaVq6uAKwhNgrx6LWMIg8HIZf4rytM8x3HcCxgPXLkqBw+XKKrBiI2uTY+LsQoViW/jaLPvXBP3FsoNeAKKwAZK48wCG83ugVN0asqq14u+ovCirk8ceJ3Mnr0GH3QuA0iIiLkrbfe0pWjETORkZHqAV68eLGw4Q1mH9+xwjTHcg5uh3HjxilYqASF8+AgJaDJQsP8NvfAvXBP3BtA90VkmhclkJ9hBaBXCPui7OhhV5e++XAOdCU4BUtnY/4DjFGRkfJ+RIS8+eabCgpCCDgz4SCY2Gz8zT6+AzgcyzmcyzW4FtdMTU3VjmH8FtyG36Y5e6ims4Q3gEAUyW49Pfrm42iEC/Bgm5ub1c+Ekou4qq6qltKSUu2oRgNLPMK5ObmSm7u3f8vJ1X18R9c1juUczuUa+Ky4JjE8vO78FtyG3w5V8EA+C6BX2JKHHS84Vc/TbuUYWFPXrvYHdHFksgEM9vEdXIVjQ5mzeKCCx10WQB7J4mHni7W34Bg4/p48/n9KCSY63IR9fMcxmP6hzFk8UMDjLgsgj2SxO72lgAWQt5Syx3mkgAWQR7LYnd5SwALIW0rZ4zxSwALII1nsTm8pYAHkLaXscR4pYAHkkSx2p7cUsADyllL2OI8UsADySBa701sKWAB5Syl7nEcKWAB5JIvd6S0FLIC8pZQ9ziMFLIA8ksXu9JYCFkDeUsoe55ECFkAeyWJ3eksBCyBvKWWP80gBCyCPZLE7vaWABZC3lLLHeaSABZBHstid3lLgf0GbmGXa+EVTAAAAAElFTkSuQmCC;" vertex="1" parent="dNxyNK7c78bLwvsdeMH5-11">
          <mxGeometry x="490" y="540" width="59.02" height="50" as="geometry" />
        </mxCell>
        <mxCell id="lBwfv3PTT-_vV1gR1VvL-65" value="" style="endArrow=classic;html=1;" edge="1" parent="1">
          <mxGeometry width="50" height="50" relative="1" as="geometry">
            <mxPoint x="420" y="580" as="sourcePoint" />
            <mxPoint x="360" y="580" as="targetPoint" />
            <Array as="points">
              <mxPoint x="420" y="580" />
            </Array>
          </mxGeometry>
        </mxCell>
        <mxCell id="lBwfv3PTT-_vV1gR1VvL-71" value="" style="endArrow=classic;html=1;" edge="1" parent="1">
          <mxGeometry width="50" height="50" relative="1" as="geometry">
            <mxPoint x="724" y="576" as="sourcePoint" />
            <mxPoint x="684" y="576" as="targetPoint" />
          </mxGeometry>
        </mxCell>
      </root>
    </mxGraphModel>
  </diagram>
</mxfile>
